<svg width="68" height="16" viewBox="0 0 68 16" fill="none" xmlns="http://www.w3.org/2000/svg">
<path fill-rule="evenodd" clip-rule="evenodd" d="M15.3472 0H3.30556L0 3.44615V12.8L3.06944 16H15.3472V12.5538H4.48611V3.44615H15.3472V0ZM17.4722 16V3.44615L20.7778 0H29.75L32.8194 3.2V16H28.5694V11.3231H23.1389V8.12308H28.5694V3.44615H21.9583V16H17.4722ZM39.4306 4.67692H35.1806V16H47.2222L50.2917 12.8V3.44615L47.2222 0.246154H35.1806V3.44615H46.0417V12.8H39.4306V4.67692ZM58.3194 3.44615V16H62.3333V3.44615H68V0H52.6528V3.44615H58.3194Z" fill="white"/>
</svg>
